<svg width="100" height="90" viewBox="0 0 100 90" fill="none" xmlns="http://www.w3.org/2000/svg">
<g clip-path="url(#clip0_5865_47335)">
<path fill-rule="evenodd" clip-rule="evenodd" d="M6.17317 4.00715C6.19542 3.48052 6.42028 2.98278 6.8009 2.61761C7.18153 2.25243 7.68856 2.04799 8.21638 2.04688H84.2843C84.7902 2.0471 85.2782 2.23423 85.6543 2.57224C86.0304 2.91025 86.268 3.37524 86.3213 3.8777L95.3522 90.0003H2.7781C2.4627 90.0002 2.15158 89.9274 1.86897 89.7875C1.58636 89.6477 1.33988 89.4446 1.14873 89.194C0.957583 88.9435 0.82692 88.6523 0.766918 88.3431C0.706916 88.0338 0.719194 87.715 0.802795 87.4113L3.11144 78.9722C3.15121 78.8232 3.17399 78.6702 3.17934 78.5161L6.17317 4.00715Z" fill="#EDECE8"/>
<path fill-rule="evenodd" clip-rule="evenodd" d="M87.4441 0C87.4169 0.469603 87.2109 0.911039 86.8683 1.2339C86.5257 1.55676 86.0725 1.7366 85.6015 1.7366C85.1305 1.7366 84.6772 1.55676 84.3347 1.2339C83.9921 0.911039 83.7861 0.469603 83.7589 0H81.9132C81.9277 0.2506 81.8909 0.501522 81.8048 0.737381C81.7188 0.973241 81.5854 1.18907 81.4129 1.37162C81.2404 1.55418 81.0323 1.69962 80.8015 1.79902C80.5707 1.89842 80.322 1.9497 80.0706 1.9497C79.8193 1.9497 79.5705 1.89842 79.3397 1.79902C79.1089 1.69962 78.9009 1.55418 78.7283 1.37162C78.5558 1.18907 78.4224 0.973241 78.3364 0.737381C78.2504 0.501522 78.2135 0.2506 78.228 0L76.3823 0C76.3969 0.2506 76.36 0.501522 76.274 0.737381C76.1879 0.973241 76.0546 1.18907 75.882 1.37162C75.7095 1.55418 75.5015 1.69962 75.2707 1.79902C75.0398 1.89842 74.7911 1.9497 74.5398 1.9497C74.2884 1.9497 74.0397 1.89842 73.8089 1.79902C73.5781 1.69962 73.37 1.55418 73.1975 1.37162C73.0249 1.18907 72.8916 0.973241 72.8055 0.737381C72.7195 0.501522 72.6826 0.2506 72.6972 0L70.8515 0C70.8243 0.469603 70.6183 0.911039 70.2757 1.2339C69.9331 1.55676 69.4799 1.7366 69.0089 1.7366C68.5379 1.7366 68.0847 1.55676 67.7421 1.2339C67.3995 0.911039 67.1935 0.469603 67.1663 0H65.3268C65.3268 0.488834 65.1323 0.957646 64.7862 1.3033C64.4401 1.64896 63.9706 1.84315 63.4811 1.84315C62.9916 1.84315 62.5222 1.64896 62.176 1.3033C61.8299 0.957646 61.6354 0.488834 61.6354 0L59.7959 0C59.7959 0.488834 59.6015 0.957646 59.2553 1.3033C58.9092 1.64896 58.4398 1.84315 57.9503 1.84315C57.4607 1.84315 56.9913 1.64896 56.6452 1.3033C56.299 0.957646 56.1046 0.488834 56.1046 0L54.2651 0C54.2651 0.488834 54.0706 0.957646 53.7245 1.3033C53.3783 1.64896 52.9089 1.84315 52.4194 1.84315C51.9299 1.84315 51.4604 1.64896 51.1143 1.3033C50.7682 0.957646 50.5737 0.488834 50.5737 0L48.7342 0C48.7342 0.488834 48.5397 0.957646 48.1936 1.3033C47.8475 1.64896 47.378 1.84315 46.8885 1.84315C46.399 1.84315 45.9296 1.64896 45.5834 1.3033C45.2373 0.957646 45.0428 0.488834 45.0428 0L43.2095 0C43.224 0.2506 43.1872 0.501522 43.1011 0.737381C43.0151 0.973241 42.8817 1.18907 42.7092 1.37162C42.5367 1.55418 42.3286 1.69962 42.0978 1.79902C41.867 1.89842 41.6183 1.9497 41.3669 1.9497C41.1156 1.9497 40.8668 1.89842 40.636 1.79902C40.4052 1.69962 40.1972 1.55418 40.0246 1.37162C39.8521 1.18907 39.7187 0.973241 39.6327 0.737381C39.5467 0.501522 39.5098 0.2506 39.5243 0L37.6786 0C37.6932 0.2506 37.6563 0.501522 37.5703 0.737381C37.4842 0.973241 37.3509 1.18907 37.1783 1.37162C37.0058 1.55418 36.7978 1.69962 36.567 1.79902C36.3361 1.89842 36.0874 1.9497 35.8361 1.9497C35.5847 1.9497 35.336 1.89842 35.1052 1.79902C34.8743 1.69962 34.6663 1.55418 34.4938 1.37162C34.3212 1.18907 34.1879 0.973241 34.1018 0.737381C34.0158 0.501522 33.9789 0.2506 33.9935 0L32.1478 0C32.1206 0.469603 31.9146 0.911039 31.572 1.2339C31.2294 1.55676 30.7762 1.7366 30.3052 1.7366C29.8342 1.7366 29.3809 1.55676 29.0384 1.2339C28.6958 0.911039 28.4898 0.469603 28.4626 0L26.6046 0C26.6191 0.2506 26.5822 0.501522 26.4962 0.737381C26.4102 0.973241 26.2768 1.18907 26.1043 1.37162C25.9317 1.55418 25.7237 1.69962 25.4929 1.79902C25.2621 1.89842 25.0133 1.9497 24.762 1.9497C24.5106 1.9497 24.2619 1.89842 24.0311 1.79902C23.8003 1.69962 23.5922 1.55418 23.4197 1.37162C23.2472 1.18907 23.1138 0.973241 23.0278 0.737381C22.9417 0.501522 22.9049 0.2506 22.9194 0L21.0737 0C21.0882 0.2506 21.0514 0.501522 20.9653 0.737381C20.8793 0.973241 20.7459 1.18907 20.5734 1.37162C20.4009 1.55418 20.1928 1.69962 19.962 1.79902C19.7312 1.89842 19.4825 1.9497 19.2311 1.9497C18.9798 1.9497 18.731 1.89842 18.5002 1.79902C18.2694 1.69962 18.0614 1.55418 17.8888 1.37162C17.7163 1.18907 17.5829 0.973241 17.4969 0.737381C17.4109 0.501522 17.374 0.2506 17.3885 0L15.5428 0C15.5156 0.469603 15.3096 0.911039 14.9671 1.2339C14.6245 1.55676 14.1713 1.7366 13.7003 1.7366C13.2292 1.7366 12.776 1.55676 12.4334 1.2339C12.0909 0.911039 11.8849 0.469603 11.8577 0L11.3638 0C10.8203 0 10.299 0.215621 9.9147 0.599428C9.53037 0.983235 9.31445 1.50379 9.31445 2.04658V77.5603C9.31445 77.6712 9.32063 77.7822 9.33914 77.8932L11.0799 88.2925C11.1601 88.7693 11.4068 89.2025 11.7763 89.515C12.1458 89.8276 12.6142 89.9994 13.0984 90H97.8391C98.1502 89.9998 98.4571 89.9289 98.7366 89.7926C99.0162 89.6564 99.261 89.4584 99.4525 89.2137C99.6441 88.9689 99.7773 88.6839 99.8422 88.3801C99.907 88.0763 99.9017 87.7617 99.8268 87.4603L97.3885 77.7267L89.3947 1.83082C89.3434 1.34282 89.1181 0.889478 88.7601 0.553422C88.402 0.217365 87.935 0.0209608 87.4441 0Z" fill="#F5F4F2"/>
<path d="M43.1175 59.3207C43.1175 56.8789 44.0888 54.5372 45.8177 52.8107C47.5467 51.0841 49.8916 50.1142 52.3367 50.1142C54.7817 50.1142 57.1266 51.0841 58.8556 52.8107C60.5845 54.5372 61.5558 56.8789 61.5558 59.3207M36.1237 29.5898C36.1237 30.628 35.7107 31.6236 34.9756 32.3577C34.2405 33.0918 33.2435 33.5042 32.2039 33.5042C31.1643 33.5042 30.1673 33.0918 29.4322 32.3577C28.6972 31.6236 28.2842 30.628 28.2842 29.5898M73.5187 29.5898C73.5205 30.3639 73.292 31.121 72.8623 31.7652C72.4326 32.4094 71.8211 32.9117 71.1052 33.2083C70.3887 33.5043 69.6005 33.5815 68.8402 33.4301C68.0798 33.2786 67.3815 32.9054 66.8336 32.3577C66.1007 31.6226 65.69 30.6271 65.6916 29.5898" stroke="#C4C2BE" stroke-width="3.318"/>
</g>
<defs>
<clipPath id="clip0_5865_47335">
<rect width="100" height="90" fill="white"/>
</clipPath>
</defs>
</svg>
